<svg width="1672" height="216" viewBox="0 0 1672 216" fill="none" xmlns="http://www.w3.org/2000/svg">
<g filter="url(#filter0_d_38_3)">
<path d="M20 52H1605L1652 99.5V196H68.5L20 147.5V52Z" fill="#220101"/>
<path d="M1604.79 52.5L1651.5 99.7051V195.5H68.707L20.5 147.293V52.5H1604.79Z" stroke="#D80111"/>
</g>
<g filter="url(#filter1_d_38_3)">
<path d="M30 20H195L205 30V52H20V30L30 20Z" fill="#220101"/>
<path d="M194.793 20.5L204.5 30.207V51.5H20.5V30.207L30.207 20.5H194.793Z" stroke="#D80111"/>
</g>
<path d="M60.912 42V30.464H62.208V40.704H72.432V42H60.912ZM75.2528 42C74.9008 42 74.5754 41.9147 74.2768 41.744C73.9888 41.5733 73.7594 41.344 73.5888 41.056C73.4181 40.7573 73.3328 40.432 73.3328 40.08V32.4C73.3328 32.048 73.4181 31.728 73.5888 31.44C73.7594 31.1413 73.9888 30.9067 74.2768 30.736C74.5754 30.5653 74.9008 30.48 75.2528 30.48H82.9328C83.2848 30.48 83.6048 30.5653 83.8928 30.736C84.1914 30.9067 84.4261 31.1413 84.5968 31.44C84.7674 31.728 84.8528 32.048 84.8528 32.4V40.08C84.8528 40.432 84.7674 40.7573 84.5968 41.056C84.4261 41.344 84.1914 41.5733 83.8928 41.744C83.6048 41.9147 83.2848 42 82.9328 42H75.2528ZM75.2528 40.704H82.9328C83.1034 40.704 83.2474 40.6453 83.3648 40.528C83.4928 40.4 83.5568 40.2507 83.5568 40.08V32.4C83.5568 32.2293 83.4928 32.0853 83.3648 31.968C83.2474 31.84 83.1034 31.776 82.9328 31.776H75.2528C75.0821 31.776 74.9328 31.84 74.8048 31.968C74.6874 32.0853 74.6288 32.2293 74.6288 32.4V40.08C74.6288 40.2507 74.6874 40.4 74.8048 40.528C74.9328 40.6453 75.0821 40.704 75.2528 40.704ZM86.6308 42V30.464H87.9268V40.704H98.1508V42H86.6308ZM103.491 37.92V36.608H109.731V37.92H103.491ZM116.1 42V30.48H126.612V31.776H117.396V35.584H124.804V36.896H117.396V42H116.1ZM127.646 42V30.464H128.942V40.704H139.166V42H127.646ZM140.131 42V30.48H150.643V31.776H141.427V35.584H148.835V36.896H141.427V40.704H150.643V42H140.131ZM152.189 42V41.984L157.021 36.24L152.189 30.496V30.48H153.853L157.869 35.232L161.869 30.48H163.533V30.496L158.701 36.24L163.549 41.984V42H161.869L157.869 37.248L153.853 42H152.189Z" fill="white"/>
<defs>
<filter id="filter0_d_38_3" x="0" y="32" width="1672" height="184" filterUnits="userSpaceOnUse" color-interpolation-filters="sRGB">
<feFlood flood-opacity="0" result="BackgroundImageFix"/>
<feColorMatrix in="SourceAlpha" type="matrix" values="0 0 0 0 0 0 0 0 0 0 0 0 0 0 0 0 0 0 127 0" result="hardAlpha"/>
<feOffset/>
<feGaussianBlur stdDeviation="10"/>
<feComposite in2="hardAlpha" operator="out"/>
<feColorMatrix type="matrix" values="0 0 0 0 0.858824 0 0 0 0 0.160784 0 0 0 0 0.219608 0 0 0 0.25 0"/>
<feBlend mode="normal" in2="BackgroundImageFix" result="effect1_dropShadow_38_3"/>
<feBlend mode="normal" in="SourceGraphic" in2="effect1_dropShadow_38_3" result="shape"/>
</filter>
<filter id="filter1_d_38_3" x="0" y="0" width="225" height="72" filterUnits="userSpaceOnUse" color-interpolation-filters="sRGB">
<feFlood flood-opacity="0" result="BackgroundImageFix"/>
<feColorMatrix in="SourceAlpha" type="matrix" values="0 0 0 0 0 0 0 0 0 0 0 0 0 0 0 0 0 0 127 0" result="hardAlpha"/>
<feOffset/>
<feGaussianBlur stdDeviation="10"/>
<feComposite in2="hardAlpha" operator="out"/>
<feColorMatrix type="matrix" values="0 0 0 0 0.858824 0 0 0 0 0.160784 0 0 0 0 0.219608 0 0 0 0.25 0"/>
<feBlend mode="normal" in2="BackgroundImageFix" result="effect1_dropShadow_38_3"/>
<feBlend mode="normal" in="SourceGraphic" in2="effect1_dropShadow_38_3" result="shape"/>
</filter>
</defs>
</svg>
