<svg width="20" height="31" viewBox="0 0 20 31" fill="none" xmlns="http://www.w3.org/2000/svg">
<g clip-path="url(#clip0_54_227)">
<path d="M11.2833 2.87707C12.3669 3.05392 13.3962 3.47426 14.2938 4.10647C15.1914 4.73867 15.9339 5.56626 16.4654 6.52693C16.9968 7.48761 17.3035 8.55633 17.3621 9.65265C17.4208 10.749 17.23 11.8443 16.8042 12.8562C16.5195 13.5367 16.1316 14.1691 15.6542 14.7312H18.1C18.8778 13.4104 19.3153 11.917 19.3732 10.3852C19.4311 8.85347 19.1076 7.33132 18.4318 5.95549C17.7559 4.57967 16.7489 3.39327 15.5012 2.50286C14.2535 1.61245 12.8041 1.04592 11.2833 0.854156V2.87707Z" fill="white"/>
<path d="M4.22298 17.1604V14.2437C3.34231 13.0151 2.87006 11.5408 2.87298 10.0292C2.86963 8.5168 3.3419 7.04168 4.22298 5.81249V2.91666C3.17426 3.78459 2.33004 4.8733 1.75055 6.1051C1.17107 7.33689 0.870605 8.6814 0.870605 10.0427C0.870605 11.404 1.17107 12.7485 1.75055 13.9803C2.33004 15.2121 3.17426 16.3008 4.22298 17.1687V17.1604Z" fill="white"/>
<path d="M9.89583 0.0125122H4.59583L5.60833 2.08543V17.9771L4.60624 20.0271H16.6208L17.7187 16.1083H9.89583V0.0125122Z" fill="white"/>
</g>
<path d="M1.73809 22.6H5.23009V23.8H3.05809V26.14H4.76209V27.34H3.05809V31H1.73809V22.6ZM5.86309 22.6H7.18309V29.8H9.35509V31H5.86309V22.6ZM9.98809 22.6H13.5881V23.8H11.3081V26.02H13.1201V27.22H11.3081V29.8H13.5881V31H9.98809V22.6ZM15.5349 26.704L14.0829 22.6H15.4749L16.3629 25.312H16.3869L17.2989 22.6H18.5469L17.0949 26.704L18.6189 31H17.2269L16.2669 28.072H16.2429L15.2589 31H14.0109L15.5349 26.704Z" fill="white"/>
<defs>
<clipPath id="clip0_54_227">
<rect width="20" height="20" fill="white"/>
</clipPath>
</defs>
</svg>
