<svg width="20" height="32" viewBox="0 0 20 32" fill="none" xmlns="http://www.w3.org/2000/svg">
<g clip-path="url(#clip0_54_226)">
<path d="M11.2833 2.87709C12.3669 3.05393 13.3962 3.47428 14.2938 4.10648C15.1914 4.73869 15.9339 5.56628 16.4654 6.52695C16.9968 7.48762 17.3035 8.55635 17.3621 9.65267C17.4208 10.749 17.23 11.8443 16.8042 12.8563C16.5195 13.5367 16.1316 14.1691 15.6542 14.7313H18.1C18.8778 13.4104 19.3153 11.917 19.3732 10.3852C19.4311 8.85349 19.1076 7.33133 18.4318 5.95551C17.7559 4.57969 16.7489 3.39329 15.5012 2.50288C14.2535 1.61247 12.8041 1.04593 11.2833 0.854172V2.87709Z" fill="white"/>
<path d="M4.22298 17.1604V14.2438C3.34231 13.0151 2.87006 11.5408 2.87298 10.0292C2.86963 8.51682 3.3419 7.0417 4.22298 5.81251V2.91667C3.17426 3.78461 2.33004 4.87332 1.75055 6.10511C1.17107 7.33691 0.870605 8.68142 0.870605 10.0427C0.870605 11.404 1.17107 12.7485 1.75055 13.9803C2.33004 15.2121 3.17426 16.3008 4.22298 17.1688V17.1604Z" fill="white"/>
<path d="M9.89583 0.0124969H4.59583L5.60833 2.08541V17.9771L4.60624 20.0271H16.6208L17.7187 16.1083H9.89583V0.0124969Z" fill="white"/>
</g>
<path d="M3.13183 31.12C2.49183 31.12 2.00783 30.94 1.67983 30.58C1.35183 30.212 1.18783 29.688 1.18783 29.008V28.528H2.43583V29.104C2.43583 29.648 2.66383 29.92 3.11983 29.92C3.34383 29.92 3.51183 29.856 3.62383 29.728C3.74383 29.592 3.80383 29.376 3.80383 29.08C3.80383 28.728 3.72383 28.42 3.56383 28.156C3.40383 27.884 3.10783 27.56 2.67583 27.184C2.13183 26.704 1.75183 26.272 1.53583 25.888C1.31983 25.496 1.21183 25.056 1.21183 24.568C1.21183 23.904 1.37983 23.392 1.71583 23.032C2.05183 22.664 2.53983 22.48 3.17983 22.48C3.81183 22.48 4.28783 22.664 4.60783 23.032C4.93583 23.392 5.09983 23.912 5.09983 24.592V24.94H3.85183V24.508C3.85183 24.22 3.79583 24.012 3.68383 23.884C3.57183 23.748 3.40783 23.68 3.19183 23.68C2.75183 23.68 2.53183 23.948 2.53183 24.484C2.53183 24.788 2.61183 25.072 2.77183 25.336C2.93983 25.6 3.23983 25.92 3.67183 26.296C4.22383 26.776 4.60383 27.212 4.81183 27.604C5.01983 27.996 5.12383 28.456 5.12383 28.984C5.12383 29.672 4.95183 30.2 4.60783 30.568C4.27183 30.936 3.77983 31.12 3.13183 31.12ZM7.78867 31.12C7.14067 31.12 6.64467 30.936 6.30067 30.568C5.95667 30.2 5.78467 29.68 5.78467 29.008V24.592C5.78467 23.92 5.95667 23.4 6.30067 23.032C6.64467 22.664 7.14067 22.48 7.78867 22.48C8.43667 22.48 8.93267 22.664 9.27667 23.032C9.62067 23.4 9.79267 23.92 9.79267 24.592V29.008C9.79267 29.68 9.62067 30.2 9.27667 30.568C8.93267 30.936 8.43667 31.12 7.78867 31.12ZM7.78867 29.92C8.24467 29.92 8.47267 29.644 8.47267 29.092V24.508C8.47267 23.956 8.24467 23.68 7.78867 23.68C7.33267 23.68 7.10467 23.956 7.10467 24.508V29.092C7.10467 29.644 7.33267 29.92 7.78867 29.92ZM10.6854 22.6H12.0054V29.8H14.1774V31H10.6854V22.6ZM16.6715 31.12C16.0235 31.12 15.5275 30.936 15.1835 30.568C14.8395 30.2 14.6675 29.68 14.6675 29.008V24.592C14.6675 23.92 14.8395 23.4 15.1835 23.032C15.5275 22.664 16.0235 22.48 16.6715 22.48C17.3195 22.48 17.8155 22.664 18.1595 23.032C18.5035 23.4 18.6755 23.92 18.6755 24.592V29.008C18.6755 29.68 18.5035 30.2 18.1595 30.568C17.8155 30.936 17.3195 31.12 16.6715 31.12ZM16.6715 29.92C17.1275 29.92 17.3555 29.644 17.3555 29.092V24.508C17.3555 23.956 17.1275 23.68 16.6715 23.68C16.2155 23.68 15.9875 23.956 15.9875 24.508V29.092C15.9875 29.644 16.2155 29.92 16.6715 29.92Z" fill="white"/>
<defs>
<clipPath id="clip0_54_226">
<rect width="20" height="20" fill="white"/>
</clipPath>
</defs>
</svg>
