<svg width="1672" height="215" viewBox="0 0 1672 215" fill="none" xmlns="http://www.w3.org/2000/svg">
<g filter="url(#filter0_d_38_2)">
<path d="M20 51L1605 50.866L1652 98.366V194.866L68.5 195L20 146.5V51Z" fill="#220101"/>
<path d="M1651.5 98.5711V194.366L68.7061 194.499L20.5 146.293V51.4988L1604.79 51.366L1651.5 98.5711Z" stroke="#D80111"/>
</g>
<g filter="url(#filter1_d_38_2)">
<path d="M30 20H195L205 30V52H20V30L30 20Z" fill="#220101"/>
<path d="M194.793 20.5L204.5 30.207V51.5H20.5V30.207L30.207 20.5H194.793Z" stroke="#D80111"/>
</g>
<path d="M35.912 42V30.464H37.208V40.704H47.432V42H35.912ZM50.2528 42C49.9008 42 49.5754 41.9147 49.2768 41.744C48.9888 41.5733 48.7594 41.344 48.5888 41.056C48.4181 40.7573 48.3328 40.432 48.3328 40.08V32.4C48.3328 32.048 48.4181 31.728 48.5888 31.44C48.7594 31.1413 48.9888 30.9067 49.2768 30.736C49.5754 30.5653 49.9008 30.48 50.2528 30.48H57.9328C58.2848 30.48 58.6048 30.5653 58.8928 30.736C59.1914 30.9067 59.4261 31.1413 59.5968 31.44C59.7674 31.728 59.8528 32.048 59.8528 32.4V40.08C59.8528 40.432 59.7674 40.7573 59.5968 41.056C59.4261 41.344 59.1914 41.5733 58.8928 41.744C58.6048 41.9147 58.2848 42 57.9328 42H50.2528ZM50.2528 40.704H57.9328C58.1034 40.704 58.2474 40.6453 58.3648 40.528C58.4928 40.4 58.5568 40.2507 58.5568 40.08V32.4C58.5568 32.2293 58.4928 32.0853 58.3648 31.968C58.2474 31.84 58.1034 31.776 57.9328 31.776H50.2528C50.0821 31.776 49.9328 31.84 49.8048 31.968C49.6874 32.0853 49.6288 32.2293 49.6288 32.4V40.08C49.6288 40.2507 49.6874 40.4 49.8048 40.528C49.9328 40.6453 50.0821 40.704 50.2528 40.704ZM61.6308 42V30.464H62.9268V40.704H73.1508V42H61.6308ZM78.4909 37.92V36.608H84.7309V37.92H78.4909ZM92.9079 42C92.5559 42 92.2305 41.9147 91.9319 41.744C91.6439 41.5733 91.4145 41.344 91.2439 41.056C91.0732 40.7573 90.9879 40.432 90.9879 40.08V39.632H92.2839V40.08C92.2839 40.2507 92.3425 40.4 92.4599 40.528C92.5879 40.6453 92.7372 40.704 92.9079 40.704H100.588C100.759 40.704 100.903 40.6453 101.02 40.528C101.148 40.4 101.212 40.2507 101.212 40.08V37.504C101.212 37.3333 101.148 37.1893 101.02 37.072C100.903 36.9547 100.759 36.896 100.588 36.896H92.9079C92.5559 36.896 92.2305 36.8107 91.9319 36.64C91.6439 36.4587 91.4145 36.224 91.2439 35.936C91.0732 35.648 90.9879 35.328 90.9879 34.976V32.4C90.9879 32.048 91.0732 31.728 91.2439 31.44C91.4145 31.1413 91.6439 30.9067 91.9319 30.736C92.2305 30.5653 92.5559 30.48 92.9079 30.48H100.588C100.94 30.48 101.26 30.5653 101.548 30.736C101.847 30.9067 102.081 31.1413 102.252 31.44C102.423 31.728 102.508 32.048 102.508 32.4V32.848H101.212V32.4C101.212 32.2293 101.148 32.0853 101.02 31.968C100.903 31.84 100.759 31.776 100.588 31.776H92.9079C92.7372 31.776 92.5879 31.84 92.4599 31.968C92.3425 32.0853 92.2839 32.2293 92.2839 32.4V34.976C92.2839 35.1467 92.3425 35.2907 92.4599 35.408C92.5879 35.5253 92.7372 35.584 92.9079 35.584H100.588C100.94 35.584 101.26 35.6747 101.548 35.856C101.847 36.0267 102.081 36.256 102.252 36.544C102.423 36.832 102.508 37.152 102.508 37.504V40.08C102.508 40.432 102.423 40.7573 102.252 41.056C102.081 41.344 101.847 41.5733 101.548 41.744C101.26 41.9147 100.94 42 100.588 42H92.9079ZM106.112 42C105.76 42 105.435 41.9147 105.136 41.744C104.848 41.5733 104.619 41.344 104.448 41.056C104.277 40.7573 104.192 40.432 104.192 40.08V32.4C104.192 32.048 104.277 31.728 104.448 31.44C104.619 31.1413 104.848 30.9067 105.136 30.736C105.435 30.5653 105.76 30.48 106.112 30.48H113.792C114.144 30.48 114.464 30.5653 114.752 30.736C115.051 30.9067 115.285 31.1413 115.456 31.44C115.627 31.728 115.712 32.048 115.712 32.4V40.08C115.712 40.432 115.627 40.7573 115.456 41.056C115.285 41.344 115.051 41.5733 114.752 41.744C114.464 41.9147 114.144 42 113.792 42H106.112ZM106.112 40.704H113.792C113.963 40.704 114.107 40.6453 114.224 40.528C114.352 40.4 114.416 40.2507 114.416 40.08V32.4C114.416 32.2293 114.352 32.0853 114.224 31.968C114.107 31.84 113.963 31.776 113.792 31.776H106.112C105.941 31.776 105.792 31.84 105.664 31.968C105.547 32.0853 105.488 32.2293 105.488 32.4V40.08C105.488 40.2507 105.547 40.4 105.664 40.528C105.792 40.6453 105.941 40.704 106.112 40.704ZM117.49 42V30.464H118.786V40.704H129.01V42H117.49ZM131.831 42C131.479 42 131.154 41.9147 130.855 41.744C130.567 41.5733 130.338 41.344 130.167 41.056C129.996 40.7573 129.911 40.432 129.911 40.08V32.4C129.911 32.048 129.996 31.728 130.167 31.44C130.338 31.1413 130.567 30.9067 130.855 30.736C131.154 30.5653 131.479 30.48 131.831 30.48H139.511C139.863 30.48 140.183 30.5653 140.471 30.736C140.77 30.9067 141.004 31.1413 141.175 31.44C141.346 31.728 141.431 32.048 141.431 32.4V40.08C141.431 40.432 141.346 40.7573 141.175 41.056C141.004 41.344 140.77 41.5733 140.471 41.744C140.183 41.9147 139.863 42 139.511 42H131.831ZM131.831 40.704H139.511C139.682 40.704 139.826 40.6453 139.943 40.528C140.071 40.4 140.135 40.2507 140.135 40.08V32.4C140.135 32.2293 140.071 32.0853 139.943 31.968C139.826 31.84 139.682 31.776 139.511 31.776H131.831C131.66 31.776 131.511 31.84 131.383 31.968C131.266 32.0853 131.207 32.2293 131.207 32.4V40.08C131.207 40.2507 131.266 40.4 131.383 40.528C131.511 40.6453 131.66 40.704 131.831 40.704ZM142.393 42V40.304L150.377 30.608L150.489 30.48V32.144L142.521 41.84L142.393 42ZM151.569 42V30.48H161.169C161.521 30.48 161.841 30.5653 162.129 30.736C162.427 30.9067 162.662 31.1413 162.833 31.44C163.003 31.728 163.089 32.048 163.089 32.4V40.08C163.089 40.432 163.003 40.7573 162.833 41.056C162.662 41.344 162.427 41.5733 162.129 41.744C161.841 41.9147 161.521 42 161.169 42H151.569ZM153.489 40.704H161.169C161.339 40.704 161.483 40.6453 161.601 40.528C161.729 40.4 161.793 40.2507 161.793 40.08V32.4C161.793 32.2293 161.729 32.0853 161.601 31.968C161.483 31.84 161.339 31.776 161.169 31.776H153.489C153.318 31.776 153.169 31.84 153.041 31.968C152.923 32.0853 152.865 32.2293 152.865 32.4V40.08C152.865 40.2507 152.923 40.4 153.041 40.528C153.169 40.6453 153.318 40.704 153.489 40.704ZM166.768 42C166.416 42 166.091 41.9147 165.792 41.744C165.504 41.5733 165.275 41.344 165.104 41.056C164.934 40.7573 164.848 40.432 164.848 40.08V30.48H166.144V40.08C166.144 40.2507 166.203 40.4 166.32 40.528C166.448 40.6453 166.598 40.704 166.768 40.704H174.448C174.619 40.704 174.763 40.6453 174.88 40.528C175.008 40.4 175.072 40.2507 175.072 40.08V30.48H176.368V40.08C176.368 40.432 176.283 40.7573 176.112 41.056C175.942 41.344 175.707 41.5733 175.408 41.744C175.12 41.9147 174.8 42 174.448 42H166.768ZM180.018 42C179.666 42 179.341 41.9147 179.042 41.744C178.754 41.5733 178.525 41.344 178.354 41.056C178.184 40.7573 178.098 40.432 178.098 40.08V32.4C178.098 32.048 178.184 31.728 178.354 31.44C178.525 31.1413 178.754 30.9067 179.042 30.736C179.341 30.5653 179.666 30.48 180.018 30.48H187.698C188.05 30.48 188.37 30.5653 188.658 30.736C188.957 30.9067 189.192 31.1413 189.362 31.44C189.533 31.728 189.618 32.048 189.618 32.4V40.08C189.618 40.432 189.533 40.7573 189.362 41.056C189.192 41.344 188.957 41.5733 188.658 41.744C188.37 41.9147 188.05 42 187.698 42H180.018ZM180.018 40.704H187.698C187.869 40.704 188.013 40.6453 188.13 40.528C188.258 40.4 188.322 40.2507 188.322 40.08V32.4C188.322 32.2293 188.258 32.0853 188.13 31.968C188.013 31.84 187.869 31.776 187.698 31.776H180.018C179.848 31.776 179.698 31.84 179.57 31.968C179.453 32.0853 179.394 32.2293 179.394 32.4V40.08C179.394 40.2507 179.453 40.4 179.57 40.528C179.698 40.6453 179.848 40.704 180.018 40.704Z" fill="white"/>
<defs>
<filter id="filter0_d_38_2" x="0" y="30.866" width="1672" height="184.134" filterUnits="userSpaceOnUse" color-interpolation-filters="sRGB">
<feFlood flood-opacity="0" result="BackgroundImageFix"/>
<feColorMatrix in="SourceAlpha" type="matrix" values="0 0 0 0 0 0 0 0 0 0 0 0 0 0 0 0 0 0 127 0" result="hardAlpha"/>
<feOffset/>
<feGaussianBlur stdDeviation="10"/>
<feComposite in2="hardAlpha" operator="out"/>
<feColorMatrix type="matrix" values="0 0 0 0 0.858824 0 0 0 0 0.160784 0 0 0 0 0.219608 0 0 0 0.25 0"/>
<feBlend mode="normal" in2="BackgroundImageFix" result="effect1_dropShadow_38_2"/>
<feBlend mode="normal" in="SourceGraphic" in2="effect1_dropShadow_38_2" result="shape"/>
</filter>
<filter id="filter1_d_38_2" x="0" y="0" width="225" height="72" filterUnits="userSpaceOnUse" color-interpolation-filters="sRGB">
<feFlood flood-opacity="0" result="BackgroundImageFix"/>
<feColorMatrix in="SourceAlpha" type="matrix" values="0 0 0 0 0 0 0 0 0 0 0 0 0 0 0 0 0 0 127 0" result="hardAlpha"/>
<feOffset/>
<feGaussianBlur stdDeviation="10"/>
<feComposite in2="hardAlpha" operator="out"/>
<feColorMatrix type="matrix" values="0 0 0 0 0.858824 0 0 0 0 0.160784 0 0 0 0 0.219608 0 0 0 0.25 0"/>
<feBlend mode="normal" in2="BackgroundImageFix" result="effect1_dropShadow_38_2"/>
<feBlend mode="normal" in="SourceGraphic" in2="effect1_dropShadow_38_2" result="shape"/>
</filter>
</defs>
</svg>
