<svg width="400" height="400" viewBox="0 0 400 401" xmlns="http://www.w3.org/2000/svg">
<path
        d="M32.1875 2.22919C24.6094 4.26044 18.6719 7.69794 12.8125 13.4792C6.95312 19.4167 3.51562 25.2761 1.5625 33.1667C0 39.1042 0 42.1511 0 200.667C0 359.182 0 362.229 1.5625 368.167C3.51562 376.057 6.95312 381.917 12.8125 387.854C18.75 393.714 24.6094 397.151 32.5 399.104C38.4375 400.667 41.4844 400.667 200 400.667C358.516 400.667 361.562 400.667 367.5 399.104C375.391 397.151 381.25 393.714 387.188 387.854C393.047 381.917 396.484 376.057 398.438 368.167C400 362.229 400 359.182 400 200.667C400 42.1511 400 39.1042 398.438 33.1667C396.406 25.1198 393.047 19.3386 386.797 13.1667C380.625 7.15106 375.703 4.26044 367.5 2.22919C361.562 0.666687 358.359 0.666687 199.688 0.744812C42.6562 0.744812 37.7344 0.822937 32.1875 2.22919ZM255.781 64.3386C258.672 96.2917 285.234 122.932 316.719 125.51L323.047 126.057L323.281 150.589L323.438 175.12L316.25 174.651C296.406 173.323 277.109 166.995 260.781 156.448L255.469 153.01V205.589C255.469 263.323 255.234 267.229 250.781 280.354C231.328 338.557 160.938 360.823 112.109 324.339C62.5781 287.307 64.1406 212.542 115.234 178.01C132.422 166.37 155.625 160.432 173.75 162.854L177.344 163.401V188.167V213.01L174.453 212.307C169.688 211.214 159.219 211.526 154.609 212.854C127.578 220.823 116.172 251.917 131.719 275.354C137.969 284.729 147.891 290.979 159.844 292.854C175.781 295.432 193.75 286.37 201.328 272.073C206.484 262.307 206.25 268.401 206.25 158.323V58.4792H230.781H255.234L255.781 64.3386Z"
        fill="currentColor"
/>
</svg>
