<svg width="400" height="400" viewBox="0 0 400 400" fill="none" xmlns="http://www.w3.org/2000/svg">
<path d="M355.556 0C380.1 6.59812e-05 400 19.9 400 44.4443V355.556C400 380.1 380.1 400 355.556 400H44.4443C19.9 400 6.59898e-05 380.1 0 355.556V44.4443C5.77336e-05 19.9 19.9 5.77411e-05 44.4443 0H355.556ZM172.935 211.747L86.9219 311.111H109.622L182.989 226.121L242.444 311.111H313.967L222.507 180.37L301.511 88.8887H279.289L212.48 166.038L158.512 88.8887H86.9893L172.935 211.747ZM279.444 292.267H250.967L121.512 107.733H149.989L279.444 292.267Z" fill="#1F2828"/>
</svg>
