<svg width="1920" height="1008" viewBox="0 0 1920 1008" fill="none" xmlns="http://www.w3.org/2000/svg">
<line x1="96.5" x2="96.5" y2="1008" stroke="#D80111" stroke-opacity="0.1"/>
<line x1="864.5" x2="864.5" y2="1008" stroke="#D80111" stroke-opacity="0.1"/>
<line x1="480.5" x2="480.5" y2="1008" stroke="#D80111" stroke-opacity="0.1"/>
<line x1="1248.5" x2="1248.5" y2="1008" stroke="#D80111" stroke-opacity="0.1"/>
<line x1="288.5" x2="288.5" y2="1008" stroke="#D80111" stroke-opacity="0.1"/>
<line x1="1056.5" x2="1056.5" y2="1008" stroke="#D80111" stroke-opacity="0.1"/>
<line x1="672.5" x2="672.5" y2="1008" stroke="#D80111" stroke-opacity="0.1"/>
<line x1="1440.5" x2="1440.5" y2="1008" stroke="#D80111" stroke-opacity="0.1"/>
<line x1="1632.5" x2="1632.5" y2="1008" stroke="#D80111" stroke-opacity="0.1"/>
<line x1="192.5" x2="192.5" y2="1008" stroke="#D80111" stroke-opacity="0.1"/>
<line x1="960.5" x2="960.5" y2="1008" stroke="#D80111" stroke-opacity="0.1"/>
<line x1="576.5" x2="576.5" y2="1008" stroke="#D80111" stroke-opacity="0.1"/>
<line x1="1344.5" x2="1344.5" y2="1008" stroke="#D80111" stroke-opacity="0.1"/>
<line x1="384.5" x2="384.5" y2="1008" stroke="#D80111" stroke-opacity="0.1"/>
<line x1="1152.5" x2="1152.5" y2="1008" stroke="#D80111" stroke-opacity="0.1"/>
<line x1="768.5" x2="768.5" y2="1008" stroke="#D80111" stroke-opacity="0.1"/>
<line x1="1536.5" x2="1536.5" y2="1008" stroke="#D80111" stroke-opacity="0.1"/>
<line x1="1728.5" x2="1728.5" y2="1008" stroke="#D80111" stroke-opacity="0.1"/>
<line x1="1824.5" x2="1824.5" y2="1008" stroke="#D80111" stroke-opacity="0.1"/>
<line x1="144.5" x2="144.5" y2="1008" stroke="#D80111" stroke-opacity="0.1"/>
<line x1="48.5" x2="48.5" y2="1008" stroke="#D80111" stroke-opacity="0.1"/>
<line x1="912.5" x2="912.5" y2="1008" stroke="#D80111" stroke-opacity="0.1"/>
<line x1="528.5" x2="528.5" y2="1008" stroke="#D80111" stroke-opacity="0.1"/>
<line x1="1296.5" x2="1296.5" y2="1008" stroke="#D80111" stroke-opacity="0.1"/>
<line x1="336.5" x2="336.5" y2="1008" stroke="#D80111" stroke-opacity="0.1"/>
<line x1="1104.5" x2="1104.5" y2="1008" stroke="#D80111" stroke-opacity="0.1"/>
<line x1="720.5" x2="720.5" y2="1008" stroke="#D80111" stroke-opacity="0.1"/>
<line x1="1488.5" x2="1488.5" y2="1008" stroke="#D80111" stroke-opacity="0.1"/>
<line x1="1680.5" x2="1680.5" y2="1008" stroke="#D80111" stroke-opacity="0.1"/>
<line x1="240.5" x2="240.5" y2="1008" stroke="#D80111" stroke-opacity="0.1"/>
<line x1="1008.5" x2="1008.5" y2="1008" stroke="#D80111" stroke-opacity="0.1"/>
<line x1="624.5" x2="624.5" y2="1008" stroke="#D80111" stroke-opacity="0.1"/>
<line x1="1392.5" x2="1392.5" y2="1008" stroke="#D80111" stroke-opacity="0.1"/>
<line x1="432.5" x2="432.5" y2="1008" stroke="#D80111" stroke-opacity="0.1"/>
<line x1="1200.5" x2="1200.5" y2="1008" stroke="#D80111" stroke-opacity="0.1"/>
<line x1="816.5" x2="816.5" y2="1008" stroke="#D80111" stroke-opacity="0.1"/>
<line x1="1584.5" x2="1584.5" y2="1008" stroke="#D80111" stroke-opacity="0.1"/>
<line x1="1776.5" x2="1776.5" y2="1008" stroke="#D80111" stroke-opacity="0.1"/>
<line x1="1872.5" x2="1872.5" y2="1008" stroke="#D80111" stroke-opacity="0.1"/>
<line y1="95.5" x2="1920" y2="95.5" stroke="#D80111" stroke-opacity="0.1"/>
<line y1="47.5" x2="1920" y2="47.5" stroke="#D80111" stroke-opacity="0.1"/>
<line y1="479.5" x2="1920" y2="479.5" stroke="#D80111" stroke-opacity="0.1"/>
<line y1="431.5" x2="1920" y2="431.5" stroke="#D80111" stroke-opacity="0.1"/>
<line y1="287.5" x2="1920" y2="287.5" stroke="#D80111" stroke-opacity="0.1"/>
<line y1="239.5" x2="1920" y2="239.5" stroke="#D80111" stroke-opacity="0.1"/>
<line y1="671.5" x2="1920" y2="671.5" stroke="#D80111" stroke-opacity="0.1"/>
<line y1="623.5" x2="1920" y2="623.5" stroke="#D80111" stroke-opacity="0.1"/>
<line y1="191.5" x2="1920" y2="191.5" stroke="#D80111" stroke-opacity="0.1"/>
<line y1="143.5" x2="1920" y2="143.5" stroke="#D80111" stroke-opacity="0.1"/>
<line y1="575.5" x2="1920" y2="575.5" stroke="#D80111" stroke-opacity="0.1"/>
<line y1="527.5" x2="1920" y2="527.5" stroke="#D80111" stroke-opacity="0.1"/>
<line y1="383.5" x2="1920" y2="383.5" stroke="#D80111" stroke-opacity="0.1"/>
<line y1="335.5" x2="1920" y2="335.5" stroke="#D80111" stroke-opacity="0.1"/>
<line y1="767.5" x2="1920" y2="767.5" stroke="#D80111" stroke-opacity="0.1"/>
<line y1="719.5" x2="1920" y2="719.5" stroke="#D80111" stroke-opacity="0.1"/>
<line y1="863.5" x2="1920" y2="863.5" stroke="#D80111" stroke-opacity="0.1"/>
<line y1="815.5" x2="1920" y2="815.5" stroke="#D80111" stroke-opacity="0.1"/>
<line y1="959.5" x2="1920" y2="959.5" stroke="#D80111" stroke-opacity="0.1"/>
<line y1="911.5" x2="1920" y2="911.5" stroke="#D80111" stroke-opacity="0.1"/>
<line y1="1007.5" x2="1920" y2="1007.5" stroke="#D80111" stroke-opacity="0.1"/>
</svg>
